Coordinates
version=1
nRows=8
nColumns=40
inDegrees=yes

Units are S.I. units (second, meters, Newtons, ...)
Angles are in degrees.

endheader
time	pelvis_tilt	pelvis_list	pelvis_rotation	pelvis_tx	pelvis_ty	pelvis_tz	hip_flexion_r	hip_adduction_r	hip_rotation_r	knee_angle_r	knee_angle_r_beta	ankle_angle_r	subtalar_angle_r	mtp_angle_r	hip_flexion_l	hip_adduction_l	hip_rotation_l	knee_angle_l	knee_angle_l_beta	ankle_angle_l	subtalar_angle_l	mtp_angle_l	lumbar_extension	lumbar_bending	lumbar_rotation	arm_flex_r	arm_add_r	arm_rot_r	elbow_flex_r	pro_sup_r	wrist_flex_r	wrist_dev_r	arm_flex_l	arm_add_l	arm_rot_l	elbow_flex_l	pro_sup_l	wrist_flex_l	wrist_dev_l
     22.71000000	     -3.71501128	     -5.18930897	      4.18085505	      1.10201597	      0.93065174	      0.47925893	     12.98059316	      2.32670158	    -14.66321081	     16.99899734	     16.99899734	      9.86988982	      2.02457099	     -3.05424964	     30.94307423	    -12.02108553	      4.64296234	     67.14841731	     67.14841731	      5.06184839	    -16.77589801	      7.78525043	    -11.51200412	      4.59473372	      0.76357227	     14.41601066	    -25.74182223	     -3.11225710	     84.12593726	     45.03842532	      0.00000000	      0.00000000	      1.17099987	    -11.51534981	     -9.55997054	     30.87895035	     45.54887821	      0.00000000	      0.00000000
     22.72400000	     -3.87979558	     -5.03970567	      4.57336686	      1.10039770	      0.93118150	      0.47996895	     12.65638522	      2.23893824	    -14.84247330	     16.66009838	     16.66009838	      9.97326953	      1.97147976	     -3.01150523	     32.45700092	    -11.77954840	      4.36620555	     65.46889576	     65.46889576	      5.56289976	    -17.05427091	      7.81443204	    -11.50198247	      4.48816867	      1.38504616	     15.71169850	    -25.82713052	     -3.24077937	     84.63899634	     45.03258460	      0.00000000	      0.00000000	      1.18861179	    -11.28861879	     -9.50261757	     30.91507024	     45.54379538	      0.00000000	      0.00000000
     22.73800000	     -3.95152371	     -4.88947887	      5.01762933	      1.09889127	      0.93195513	      0.48051066	     12.06616329	      2.18958373	    -15.07984677	     16.01615180	     16.01615180	      9.99657177	      2.06368188	     -2.88892316	     33.64031234	    -11.35452383	      4.23546487	     63.36334555	     63.36334555	      5.86689914	    -17.69522859	      8.06707086	    -11.61160359	      4.43318830	      1.59380310	     17.26262716	    -25.59466508	     -3.26192958	     85.54016580	     45.01406907	      0.00000000	      0.00000000	      0.94879288	    -11.16598204	     -9.44260571	     30.90195579	     45.54199106	      0.00000000	      0.00000000
     22.75200000	     -4.13407736	     -4.77056551	      5.41776709	      1.09734432	      0.93233458	      0.48105547	     11.75523683	      2.13105101	    -15.28570404	     15.66432475	     15.66432475	     10.10266564	      2.01382560	     -2.85499354	     34.80149975	    -11.05126041	      3.91748900	     60.98627781	     60.98627781	      6.26868510	    -17.84126573	      8.30805888	    -11.57143586	      4.38533468	      2.12650277	     18.63711059	    -25.67155127	     -3.34441932	     86.05613368	     45.00751899	      0.00000000	      0.00000000	      0.90613897	    -10.95005912	     -9.40532672	     31.00143836	     45.53979156	      0.00000000	      0.00000000
     22.76600000	     -4.27873002	     -4.63463594	      5.81463495	      1.09586889	      0.93272811	      0.48142277	     11.35994015	      2.06117643	    -15.47381524	     15.23351112	     15.23351112	     10.20252085	      2.00613199	     -2.80565530	     35.68425357	    -10.66044809	      3.61035220	     58.20100523	     58.20100523	      6.61060773	    -17.96938947	      8.68860544	    -11.57449126	      4.34404580	      2.53834388	     20.03398260	    -25.62774186	     -3.37617733	     86.61786013	     44.99805237	      0.00000000	      0.00000000	      0.80758761	    -10.77377299	     -9.37385883	     31.11442476	     45.53785667	      0.00000000	      0.00000000
     22.78000000	     -4.35213620	     -4.51597647	      6.19321187	      1.09454237	      0.93318201	      0.48165907	     10.85768324	      2.01607860	    -15.71515488	     14.75734723	     14.75734723	     10.26351692	      2.07415203	     -2.74887081	     36.24631032	    -10.23014453	      3.34267805	     54.99040478	     54.99040478	      6.91993753	    -18.03122477	      9.17447030	    -11.65260937	      4.29124059	      2.77058161	     21.45802901	    -25.38685292	     -3.27180866	     87.17108530	     44.98537111	      0.00000000	      0.00000000	      0.59223549	    -10.67231869	     -9.35668695	     31.29220127	     45.53839156	      0.00000000	      0.00000000
     22.79400000	     -4.50229708	     -4.43639352	      6.54608928	      1.09316525	      0.93327393	      0.48175399	     10.50623888	      1.98479206	    -15.95571826	     14.38782414	     14.38782414	     10.41231237	      2.13024279	     -2.76416384	     36.72450865	     -9.79971025	      3.10746520	     51.47392178	     51.47392178	      7.18585540	    -17.83391740	      9.57656947	    -11.63582885	      4.28902381	      3.04156795	     22.83621625	    -25.18497604	     -3.13330452	     87.55656426	     44.97672681	      0.00000000	      0.00000000	      0.43339023	    -10.51432242	     -9.33618925	     31.51936795	     45.53868947	      0.00000000	      0.00000000
     22.80800000	     -4.71952809	     -4.41328843	      6.89571019	      1.09180730	      0.93308989	      0.48158357	     10.29181504	      1.97084224	    -16.19798854	     14.13238899	     14.13238899	     10.57538162	      2.12394204	     -2.81494293	     37.09369154	     -9.37673223	      2.91914665	     47.65744445	     47.65744445	      7.41478886	    -17.29489282	      9.92370670	    -11.51689660	      4.41314272	      3.38273826	     24.10466419	    -25.04029369	     -3.03875973	     87.86560338	     44.97069687	      0.00000000	      0.00000000	      0.40036912	    -10.28060756	     -9.29888662	     31.71697221	     45.53628225	      0.00000000	      0.00000000
